<svg width="23" height="28" viewBox="0 0 23 28" fill="none" xmlns="http://www.w3.org/2000/svg">
<path d="M14.6435 3C16.1 3 16.8283 4.0488 16.8283 5.25055C16.8283 6.7513 15.5631 8.13935 13.9163 8.13935C12.537 8.13935 11.7326 7.27685 11.7707 5.85085C11.7707 4.6514 12.7283 3 14.6435 3ZM10.162 26C9.01199 26 8.1696 25.2502 8.97394 21.9474L10.2935 16.0916C10.5229 15.1555 10.5609 14.7794 10.2935 14.7794C9.94894 14.7794 8.45764 15.4257 7.57394 16.064L7.00003 15.052C9.79568 12.5381 13.012 11.0649 14.3924 11.0649C15.5413 11.0649 15.7326 12.5289 15.1587 14.7794L13.6468 20.9342C13.3794 22.021 13.4935 22.3959 13.762 22.3959C14.1066 22.3959 15.237 21.9451 16.3479 21.0079L17 21.9439C14.2805 24.873 11.3098 26 10.162 26Z" fill="white"/>
</svg>
